<svg width="24" height="24" viewBox="0 0 24 24" fill="none" xmlns="http://www.w3.org/2000/svg">
<path d="M14.0001 2.00012H6.00012C5.46969 2.00012 4.96098 2.21084 4.58591 2.58591C4.21084 2.96098 4.00012 3.46969 4.00012 4.00012V20.0001C4.00012 20.5306 4.21084 21.0393 4.58591 21.4143C4.96098 21.7894 5.46969 22.0001 6.00012 22.0001H18.0001C18.5306 22.0001 19.0393 21.7894 19.4143 21.4143C19.7894 21.0393 20.0001 20.5306 20.0001 20.0001V8.00012L14.0001 2.00012Z" stroke="#737791" stroke-width="2" stroke-linecap="round" stroke-linejoin="round"/>
<path d="M16.0001 17.0001H8.00012" stroke="#737791" stroke-width="2" stroke-linecap="round" stroke-linejoin="round"/>
<path d="M16.0001 13.0001H8.00012" stroke="#737791" stroke-width="2" stroke-linecap="round" stroke-linejoin="round"/>
<path d="M10.0001 9.00012H9.00012H8.00012" stroke="#737791" stroke-width="2" stroke-linecap="round" stroke-linejoin="round"/>
<path d="M14.0001 2.00012V8.00012H20.0001" stroke="#737791" stroke-width="2" stroke-linecap="round" stroke-linejoin="round"/>
</svg>
