<svg width="24" height="24" viewBox="0 0 24 24" fill="none" xmlns="http://www.w3.org/2000/svg">
<g clip-path="url(#clip0_1_10874)">
<path d="M23.0001 21.0001V19.0001C22.9995 18.1138 22.7045 17.2529 22.1615 16.5524C21.6185 15.852 20.8583 15.3517 20.0001 15.1301" stroke="#737791" stroke-width="2" stroke-linecap="round" stroke-linejoin="round"/>
<path d="M17.0001 21.0001V19.0001C17.0001 17.9393 16.5787 16.9218 15.8285 16.1717C15.0784 15.4216 14.061 15.0001 13.0001 15.0001H5.00012C3.93926 15.0001 2.92184 15.4216 2.17169 16.1717C1.42155 16.9218 1.00012 17.9393 1.00012 19.0001V21.0001" stroke="#737791" stroke-width="2" stroke-linecap="round" stroke-linejoin="round"/>
<path d="M16.0001 3.13013C16.8605 3.35043 17.6232 3.85083 18.1678 4.55244C18.7124 5.25405 19.008 6.11696 19.008 7.00513C19.008 7.8933 18.7124 8.75621 18.1678 9.45782C17.6232 10.1594 16.8605 10.6598 16.0001 10.8801" stroke="#737791" stroke-width="2" stroke-linecap="round" stroke-linejoin="round"/>
<path d="M9.00012 11.0001C11.2093 11.0001 13.0001 9.20926 13.0001 7.00012C13.0001 4.79098 11.2093 3.00012 9.00012 3.00012C6.79098 3.00012 5.00012 4.79098 5.00012 7.00012C5.00012 9.20926 6.79098 11.0001 9.00012 11.0001Z" stroke="#737791" stroke-width="2" stroke-linecap="round" stroke-linejoin="round"/>
</g>
<defs>
<clipPath id="clip0_1_10874">
<rect width="24" height="24" fill="white"/>
</clipPath>
</defs>
</svg>
