<svg width="24" height="24" viewBox="0 0 24 24" fill="none" xmlns="http://www.w3.org/2000/svg">
<path d="M16.5001 9.40012L7.50012 4.21012" stroke="#737791" stroke-width="2" stroke-linecap="round" stroke-linejoin="round"/>
<path d="M21.0001 16.0001V8.00012C20.9998 7.6494 20.9072 7.30493 20.7317 7.00129C20.5561 6.69764 20.3039 6.44549 20.0001 6.27012L13.0001 2.27012C12.6961 2.09459 12.3512 2.00217 12.0001 2.00217C11.649 2.00217 11.3042 2.09459 11.0001 2.27012L4.00012 6.27012C3.69638 6.44549 3.4441 6.69764 3.26858 7.00129C3.09306 7.30493 3.00048 7.6494 3.00012 8.00012V16.0001C3.00048 16.3508 3.09306 16.6953 3.26858 16.999C3.4441 17.3026 3.69638 17.5548 4.00012 17.7301L11.0001 21.7301C11.3042 21.9057 11.649 21.9981 12.0001 21.9981C12.3512 21.9981 12.6961 21.9057 13.0001 21.7301L20.0001 17.7301C20.3039 17.5548 20.5561 17.3026 20.7317 16.999C20.9072 16.6953 20.9998 16.3508 21.0001 16.0001Z" stroke="#737791" stroke-width="2" stroke-linecap="round" stroke-linejoin="round"/>
<path d="M3.27014 6.96012L12.0001 12.0101L20.7301 6.96012" stroke="#737791" stroke-width="2" stroke-linecap="round" stroke-linejoin="round"/>
<path d="M12.0001 22.0801V12.0001" stroke="#737791" stroke-width="2" stroke-linecap="round" stroke-linejoin="round"/>
</svg>
