<svg width="24" height="24" viewBox="0 0 24 24" fill="none" xmlns="http://www.w3.org/2000/svg">
<path d="M21.2102 15.8901C20.574 17.3946 19.5789 18.7203 18.312 19.7514C17.0451 20.7825 15.5449 21.4875 13.9426 21.8049C12.3403 22.1222 10.6846 22.0423 9.12031 21.5719C7.55603 21.1016 6.13078 20.2552 4.96918 19.1068C3.80757 17.9583 2.94497 16.5429 2.45679 14.9841C1.96861 13.4253 1.86972 11.7706 2.16876 10.1647C2.46779 8.55889 3.15565 7.05074 4.1722 5.77214C5.18876 4.49354 6.50304 3.48343 8.00016 2.83011" stroke="#737791" stroke-width="2" stroke-linecap="round" stroke-linejoin="round"/>
<path d="M22.0001 12.0001C22.0001 10.6869 21.7415 9.38654 21.2389 8.17329C20.7364 6.96003 19.9998 5.85764 19.0712 4.92905C18.1426 4.00047 17.0402 3.26387 15.827 2.76133C14.6137 2.25878 13.3133 2.00012 12.0001 2.00012V12.0001H22.0001Z" stroke="#737791" stroke-width="2" stroke-linecap="round" stroke-linejoin="round"/>
</svg>
